<?xml version="1.0" encoding="UTF-8"?>
<!-- Generator: Adobe Illustrator 16.0.0, SVG Export Plug-In . SVG Version: 6.00 Build 0)  -->
<!DOCTYPE svg PUBLIC "-//W3C//DTD SVG 1.1//EN" "http://www.w3.org/Graphics/SVG/1.1/DTD/svg11.dtd">
<svg version="1.1" id="Layer_1" xmlns="http://www.w3.org/2000/svg" xmlns:xlink="http://www.w3.org/1999/xlink" x="0px" y="0px" width="560.833px" height="543.541px" viewBox="0 0 560.833 543.541" enable-background="new 0 0 560.833 543.541" xml:space="preserve">
<path opacity="0.2" fill="#3185CC" stroke="#FFFFFF" stroke-width="0.25" stroke-miterlimit="10" d="M560.084,533.168  c0,0-14.959,0.226-26.584,2.061c-17.807,2.811-12.75,4.312-55.625,7.438c-51.669,3.766-65.126-26.582-65.875-41.165  c-0.763-14.84,16.625-45.875,54.75-75.5c37.676-29.275,85.75-35,85.75-35s6.245,35.67,7.312,71.372  C560.457,483.937,560.084,533.168,560.084,533.168z"/>
<path opacity="0.2" fill="#3185CC" stroke="#FFFFFF" stroke-width="0.25" stroke-miterlimit="10" d="M548.501,352.789  c0,0-32.25,3.919-56.835,15.417c0,0-27.877,13.172-42.332,22.836c-14.334,9.583-33.658,24.451-41.086,30.582  c-7.146,5.898-29.56,26.861-38,35.17c-3.817,3.758-19.33,22.534-40.748,28.831c-23.722,6.975-60.211-1.596-77.211-6.079  c-31.417-8.285-58.955-17.753-74.288-23.253s-42.252-14-57.71-20.958c-15.397-6.931-48.53-23.689-55.708-27.542  c-3.614-1.939-17.833-9.251-32.458-13.209c-16.171-4.376-31.458-6.543-31.458-6.543l4.417-38.888c0,0,6.469-38.301,9.113-51.462  c2.473-12.308,7.053-34.234,14.22-55.484c7.04-20.874,14.334-40.917,14.334-40.917S113.481,0.541,274.938,0.541  c173.312,0,238.754,203.663,240.062,207.75c13.411,41.916,14.168,40.5,18.418,58.75c4.25,18.25,11.02,53.832,11.957,61.937  C546.416,337.977,548.501,352.789,548.501,352.789z"/>
<path opacity="0.2" fill="#1D80CA" stroke="#FFFFFF" stroke-width="0.25" stroke-miterlimit="10" d="M545.375,328.979  c-0.938-8.105-7.707-43.688-11.957-61.937c-4.25-18.25-5.007-16.834-18.418-58.75c-1.308-4.087-66.75-207.75-240.062-207.75  c-161.457,0-232.188,200.75-232.188,200.75s-7.294,20.042-14.334,40.917c-7.167,21.25-11.747,43.176-14.22,55.484  c-2.644,13.161-9.113,51.462-9.113,51.462L1.536,380.39l0.047,0.151c0,0,24.791,0.937,49.417,12.75  c27.521,13.203,62.986,32.763,76.25,38.875c25.5,11.75,51.462,17.943,65.625,23.125c14.8,5.414,43.39,16.161,71,22.75  c17.69,4.222,35.16,5.529,47.75,5.875c22.75,0.625,39.197-13.414,49-22.75c24.168-23.017,46.875-44.043,56.375-52.375  c8.762-7.686,23.375-19.043,40.125-29.918c16.332-10.604,28.215-16.794,38.5-21.957c10.708-5.375,18.771-8.25,29.374-10.209  c10.123-1.87,21.546-4.055,22.1-4.161C546.5,338.076,545.836,332.959,545.375,328.979z"/>
<path opacity="0.2" fill="#007CC8" stroke="#FFFFFF" stroke-width="0.25" stroke-miterlimit="10" d="M238.125,466.166  c4.343,1.478,43.958,14.542,75.292,13.042c21.828-1.045,35.781-11.729,45.583-21.064c24.167-23.019,51.001-49.396,60.5-57.728  c8.763-7.686,22.625-20.25,39.375-31.125c16.332-10.604,27.729-18.095,38.125-22.584c11-4.75,18.875-7.604,29.25-10.541  c9.702-2.747,19.228-4.208,19.477-4.246c-0.126-1.025-0.244-2.017-0.352-2.941c-0.938-8.105-7.707-43.688-11.957-61.937  c-4.25-18.25-5.007-16.834-18.418-58.75c-1.308-4.087-66.75-207.75-240.062-207.75c-161.457,0-232.188,200.75-232.188,200.75  s-7.294,20.042-14.334,40.917c-7.167,21.25-11.747,43.176-14.22,55.484c-2.644,13.161-9.113,51.462-9.113,51.462l-2.235,19.68  l0.485,2.126c0,0,23.667,2.25,48.667,13.25c27.448,12.077,58.947,32.533,72,39.083c24.25,12.167,50.803,19.487,65.167,24.085  C213.479,455.16,234.881,465.062,238.125,466.166z"/>
<path opacity="0.2" fill="#0077C6" stroke="#FFFFFF" stroke-width="0.25" stroke-miterlimit="10" d="M515,208.291  c-1.308-4.087-66.75-207.75-240.062-207.75c-161.457,0-232.188,200.75-232.188,200.75s-7.294,20.042-14.334,40.917  c-7.167,21.25-11.747,43.176-14.22,55.484c-2.644,13.161-9.113,51.462-9.113,51.462l-0.836,7.367  c4.521,1.347,38.778,11.596,45.002,15.019c6.667,3.666,29.167,16.166,35.5,19.666s49.5,31.999,69.167,36.833  s71.999,26.499,78.833,29.333s49,19.501,74.167,17.834s39.332-6.833,74.332-44s84.772-80.291,107.838-90.578  c22.68-10.115,53.165-18.834,54.832-20.001l0.151-0.101c-2.393-13.983-7.303-39.107-10.65-53.484  C529.168,248.792,528.411,250.207,515,208.291z"/>
<path opacity="0.2" fill="#0072C3" stroke="#FFFFFF" stroke-width="0.25" stroke-miterlimit="10" d="M533.418,267.042  c-4.25-18.25-5.007-16.834-18.418-58.75c-1.308-4.087-66.75-207.75-240.062-207.75c-161.457,0-232.188,200.75-232.188,200.75  s-7.294,20.042-14.334,40.917c-7.167,21.25-11.747,43.176-14.22,55.484c-1.825,9.086-5.473,30.149-7.557,42.325  c2.904,1.023,46.774,16.594,66.986,29.899c11,7.241,33.84,24.778,63.375,41.25c19.5,10.875,55.257,18.394,75.375,28.125  c19.349,9.359,33.481,17.154,35.875,18.125c6.713,2.724,41.75,18.125,73.293,11.125c28.729-6.376,53.443-36.409,61.707-45.25  c17.591-18.817,71.165-76.584,111.999-97.913c16.912-8.834,46.376-18.337,46.376-18.337l0.004-0.011  C539.111,293.627,535.852,277.494,533.418,267.042z"/>
<path opacity="0.2" fill="#006EC1" stroke="#FFFFFF" stroke-width="0.25" stroke-miterlimit="10" d="M533.418,267.042  c-4.25-18.25-5.007-16.834-18.418-58.75c-1.308-4.087-66.75-207.75-240.062-207.75c-161.457,0-232.188,200.75-232.188,200.75  s-7.294,20.042-14.334,40.917c-7.167,21.25-11.747,43.176-14.22,55.484c-0.709,3.532-1.695,8.877-2.756,14.804l0.685,1.421  c0,0,26.958,10.126,49.542,25.959c16.78,11.764,33.208,25.314,43.752,34.836c22.332,20.167,57.869,37.057,74.429,40.443  c16.331,3.34,32.072,11.804,36.07,13.782c4.301,2.128,27.165,19.278,45.333,26.438c18.345,7.229,36.415,10.422,57.167,8  c10.797-1.26,24.581-8.494,36.132-18.887c12.51-11.255,24.213-23.524,26.035-25.781c3.5-4.333,50.5-54.667,56.334-61.5  s36.087-34.922,51.666-45c6.629-4.288,18.571-10.96,25.411-13.735c11.5-4.667,23.756-8.333,23.756-8.333l0.465-0.637  C536.543,281.195,534.84,273.148,533.418,267.042z"/>
<path opacity="0.2" fill="#0072C3" stroke="#FFFFFF" stroke-width="0.25" stroke-miterlimit="10" d="M42.75,201.291  c0,0-4.123,11.329-9.161,25.821l0.161,0.179c0,0,17.296-0.085,38.875,3.875c19.75,3.625,49,2.271,63.091-3.742  c15.022-6.411,31.499-25.608,38.036-36.736c15.933-27.125,23.873-45.022,30.832-82.647c3.593-19.426,1.28-35.963,1.041-50.125  c-0.411-24.281-1.776-40.124-2.069-43.282C92.431,60.299,42.75,201.291,42.75,201.291z"/>
<path opacity="0.2" fill="#006ABF" stroke="#FFFFFF" stroke-width="0.25" stroke-miterlimit="10" d="M528.411,250.207  c0,0-20.85,12.835-39.786,30.584c-17.592,16.487-32.939,37.448-43.38,50.416c-22.985,28.548-21.875,26.368-46.676,57.5  c-27.407,34.403-52.226,56.922-63.896,62.212c-3.014,1.366-18.333,9.937-43.048,6.357c-29.25-4.235-61.216-32-66.375-36.485  c-27.75-24.125-51.922-22.698-68.568-34.049C93.875,343.916,109,312.166,142.546,306.72c19.083-3.098,36.535-7.847,47.702-13.513  c7.706-3.91,18.367-13.965,35.835-32.832c7.845-8.473,20.936-25.876,34.416-36.834c54.333-44.167,73.542-46.532,216.751-53.625  l12.875,4.25l12.875,4.25"/>
<path opacity="0.2" fill="#0065BD" stroke="#FFFFFF" stroke-width="0.25" stroke-miterlimit="10" d="M248,304.541  c0,0,31.583-44.168,74.584-52.335c36.368-6.907,63.5-7.167,88.5,6.5c24.054,13.149,31.007,36.381,12.541,72.585  C385.584,405.873,341.177,448.6,312.72,450.544c-24.303,1.66-62.161-5.832-88.72-63.753c-11.592-25.281-5.827-33.684-1.75-43.25  C226.583,333.372,248,304.541,248,304.541z"/>
<path opacity="0.2" fill="#0061BB" stroke="#FFFFFF" stroke-width="0.25" stroke-miterlimit="10" d="M316.417,297.207  c11.812-4.339,28.24-6.369,47.332-4.266c28.126,3.1,49.001,31.225,22.876,77.975c-12.076,21.609-26.519,42.033-40.875,54.25  c-20.125,17.125-41.057,18.382-55,13.709c-24.125-8.084-38.875-29.459-40.125-55.834c-1.223-25.809,14.625-49.375,32.875-66  C299.13,302.803,306.713,300.771,316.417,297.207z"/>
<path opacity="0.2" fill="#1D80CA" stroke="#FFFFFF" stroke-width="0.25" stroke-miterlimit="10" d="M554.897,406.791  c0,0-42.588,5.448-67.647,18.625c-26.625,14-52.125,37.812-59.375,51.625c-8.418,16.037-9.062,21.25-7.75,29.75  c1.069,6.924,13.045,28.396,48.188,28.438c35.375,0.041,64.25-12.562,76.312-13.688c7.01-0.653,15.125-0.625,15.125-0.625"/>
<path opacity="0.2" fill="#005CB9" stroke="#FFFFFF" stroke-width="0.25" stroke-miterlimit="10" d="M557.304,426.666  c0,0-11.171,0.2-23.804,1.938c-13.012,1.789-28.169,5.158-36.543,8.062c-16.582,5.75-41.27,18.625-51.957,32  c-10.925,13.672-16.32,23.37-15.25,32.5c1.062,9.062,11.312,39.5,80.938,15.125l25.562-9.75l23.939-8"/>
<path opacity="0.2" fill="#0077C6" stroke="#FFFFFF" stroke-width="0.25" stroke-miterlimit="10" d="M475.334,464.71  c6.505-3.03,17.333-5.584,28.25-5.084c10.406,0.477,19.333,3,22.083,7.167s6.418,12.583-27.166,32.583s-46.71,7.438-49.084,2.417  c-2.089-4.417-4.25-11.917,3.5-19.917S468.935,467.691,475.334,464.71z"/>
<path opacity="0.2" fill="#005CB9" stroke="#FFFFFF" stroke-width="0.25" stroke-miterlimit="10" d="M294.75,347.416  c12.878-10.169,22.644-14.298,33.327-16.967c3.717-0.929,25.22-6.529,36.923,11.717c15.875,24.75-17.75,65.75-24,71.125  c-3.257,2.801-26.425,28.405-54.25,7.5C262.625,402.666,276.525,361.807,294.75,347.416z"/>
<text transform="matrix(1 0 0 1 317.0527 383.542)" fill="#FFFFFF" font-family="'Arial-BoldMT'" font-size="7">44</text>
<text transform="matrix(1 0 0 1 264.0527 366.542)" fill="#FFFFFF" font-family="'Arial-BoldMT'" font-size="7">43</text>
<text transform="matrix(1 0 0 1 229.0527 360.542)" fill="#FFFFFF" font-family="'Arial-BoldMT'" font-size="7">42</text>
<text transform="matrix(1 0 0 1 159.0527 340.542)" fill="#FFFFFF" font-family="'Arial-BoldMT'" font-size="7">41</text>
<text transform="matrix(1 0 0 1 69.0527 290.542)" fill="#FFFFFF" font-family="'Arial-BoldMT'" font-size="7">40</text>
<text transform="matrix(1 0 0 1 344.8857 316.6494)" fill="#FFFFFF" font-family="'Arial-BoldMT'" font-size="7">43</text>
<text transform="matrix(1 0 0 1 365.3232 271.7705)" fill="#FFFFFF" font-family="'Arial-BoldMT'" font-size="7">42</text>
<text transform="matrix(1 0 0 1 389.0723 217.3994)" fill="#FFFFFF" font-family="'Arial-BoldMT'" font-size="7">41</text>
<text transform="matrix(1 0 0 1 305.0723 112.3994)" fill="#FFFFFF" font-family="'Arial-BoldMT'" font-size="7">40</text>
<text transform="matrix(1 0 0 1 133.0723 136.3994)" fill="#FFFFFF" font-family="'Arial-BoldMT'" font-size="7">39</text>
<text transform="matrix(1 0 0 1 17.8223 334.8994)" fill="#FFFFFF" font-family="'Arial-BoldMT'" font-size="7">39</text>
<text transform="matrix(1 0 0 1 481.0723 488.2607)" fill="#FFFFFF" font-family="'Arial-BoldMT'" font-size="7">38</text>
<text transform="matrix(1 0 0 1 12.6138 354.1904)" fill="#FFFFFF" font-family="'Arial-BoldMT'" font-size="7">38</text>
<text transform="matrix(1 0 0 1 10.0723 369.3994)" fill="#FFFFFF" font-family="'Arial-BoldMT'" font-size="7">37</text>
<text transform="matrix(1 0 0 1 15.0723 380.7334)" fill="#FFFFFF" font-family="'Arial-BoldMT'" font-size="7">36</text>
<text transform="matrix(1 0 0 1 23.0723 391.7334)" fill="#FFFFFF" font-family="'Arial-BoldMT'" font-size="7">35</text>
<text transform="matrix(1 0 0 1 537.7324 458.1436)" fill="#FFFFFF" font-family="'Arial-BoldMT'" font-size="7">37</text>
<text transform="matrix(1 0 0 1 540.0723 420.3994)" fill="#FFFFFF" font-family="'Arial-BoldMT'" font-size="7">36</text>
<text transform="matrix(1 0 0 1 538.0723 402.3994)" fill="#FFFFFF" font-family="'Arial-BoldMT'" font-size="7">35</text>
</svg>